<?xml version="1.0" encoding="UTF-8" standalone="no"?>
<svg
   xmlns:dc="http://purl.org/dc/elements/1.1/"
   xmlns:cc="http://creativecommons.org/ns#"
   xmlns:rdf="http://www.w3.org/1999/02/22-rdf-syntax-ns#"
   xmlns:svg="http://www.w3.org/2000/svg"
   xmlns="http://www.w3.org/2000/svg"
   xmlns:sodipodi="http://sodipodi.sourceforge.net/DTD/sodipodi-0.dtd"
   xmlns:inkscape="http://www.inkscape.org/namespaces/inkscape"
   inkscape:export-ydpi="90"
   inkscape:export-xdpi="90"
   inkscape:export-filename="C:\Users\Alexander\Desktop\Sternwarte Logo Aktuell_v2.png"
   sodipodi:docname="logo.svg"
   inkscape:version="1.0.1 (3bc2e813f5, 2020-09-07)"
   version="1.1"
   id="svg2"
   height="42.841038"
   width="50"
   viewBox="0 0 50 42.841038">
  <defs
     id="defs4" />
  <sodipodi:namedview
     inkscape:document-rotation="0"
     inkscape:window-maximized="1"
     inkscape:window-y="27"
     inkscape:window-x="1920"
     inkscape:window-height="1016"
     inkscape:window-width="1920"
     inkscape:snap-nodes="false"
     inkscape:showpageshadow="false"
     showborder="true"
     inkscape:snap-page="true"
     inkscape:snap-bbox="true"
     showgrid="false"
     inkscape:current-layer="layer3"
     inkscape:document-units="px"
     inkscape:cy="25.711719"
     inkscape:cx="38.065454"
     inkscape:zoom="8.8214314"
     inkscape:pageshadow="2"
     inkscape:pageopacity="0"
     borderopacity="1.0"
     bordercolor="#666666"
     pagecolor="#003366"
     id="base"
     fit-margin-top="0"
     fit-margin-left="0"
     fit-margin-right="0"
     fit-margin-bottom="0"
     inkscape:pagecheckerboard="false"
     viewbox-width="474.88736"
     inkscape:bbox-paths="true"
     inkscape:bbox-nodes="true" />
  <metadata
     id="metadata7">
    <rdf:RDF>
      <cc:Work
         rdf:about="">
        <dc:format>image/svg+xml</dc:format>
        <dc:type
           rdf:resource="http://purl.org/dc/dcmitype/StillImage" />
        <dc:title></dc:title>
      </cc:Work>
    </rdf:RDF>
  </metadata>
  <g
     transform="translate(-25.245546,-617.84172)"
     style="display:inline"
     inkscape:label="Hintergrund"
     id="layer2"
     inkscape:groupmode="layer" />
  <g
     style="display:inline"
     transform="translate(-25.245546,-617.84172)"
     id="layer1"
     inkscape:groupmode="layer"
     inkscape:label="Ebene 1" />
  <g
     transform="translate(-25.245546,-617.84172)"
     inkscape:label="Stern"
     id="layer3"
     inkscape:groupmode="layer"
     style="display:inline">
    <g
       id="g2747"
       transform="matrix(0.10528813,0,0,0.10528813,22.774485,553.12018)">
      <g
         style="display:inline;fill:#000000"
         inkscape:label="Ebene 1"
         id="layer1-1"
         transform="matrix(0.97949909,0,0,0.97950014,14.917006,65.40943)">
        <path
           sodipodi:nodetypes="acssccccaccsssca"
           inkscape:connector-curvature="0"
           id="path3837"
           d="m 249.11559,804.40086 c -80.46414,0.49702 -168.480149,36.73262 -215.816715,108.14651 -8.19152,12.55647 -14.54382,26.06321 -19.05176,40.50925 -1.38118,4.42609 -4.7876396,18.21258 -5.2135096,21.09998 l -0.3021,2.0482 15.1057296,-15.04632 15.10573,-15.0463 2.79808,-5.78704 C 85.578937,864.92551 169.057,825.27509 247.84892,824.57793 c 80.30283,-0.71053 173.93903,41.18711 212.11472,114.23133 l 3.4372,6.83996 15.0787,15.04362 c 8.9358,8.91493 15.0787,14.71366 15.0787,14.23366 0,-1.0916 -3.4198,-15.28962 -4.9331,-20.48099 -4.2204,-14.4777 -11.6753,-30.24898 -20.6801,-43.75 C 417.48558,837.18131 330.20719,803.89996 249.11559,804.40086 Z"
           style="fill:#ffffff;fill-opacity:1;stroke:none" />
        <path
           inkscape:connector-curvature="0"
           d="m 359.88564,830.90623 c 0.10635,-1.13856 1.00546,-10.05369 1.55423,-14.8929 0.54877,-4.8392 1.23491,-10.97229 1.52479,-13.62907 0.28986,-2.65677 0.8907,-8.01352 1.33523,-11.90388 0.44451,-3.89035 1.19261,-10.48927 1.66243,-14.66427 1.74956,-15.54739 2.19172,-19.26255 2.30621,-19.37785 0.14838,-0.14945 3.31412,0.42214 3.53103,0.63756 0.20163,0.20022 3.65494,11.69184 16.93866,56.3671 6.95445,23.38883 8.14048,28.40429 8.93522,28.24949 0.44639,-0.087 0.99916,0.0606 1.06523,0.27401 0.90359,2.92042 5.71509,19.76825 5.63312,20.01575 m 2.36857,-3.05124 c -6.35105,-18.35496 -5.43542,-18.42256 -4.73555,-18.58979 0.35604,-0.085 -2.70282,-11.86284 -9.22828,-33.74959 -8.75245,-29.35584 -13.49094,-45.54336 -15.83491,-54.09482 -0.7013,-2.55847 -1.64166,-5.34891 -2.08971,-6.20099 -0.73763,-1.40282 -3.24284,-10.07647 -3.2462,-11.04028 l 5.29883,-6.12503 c 0.17052,-0.0263 1.84135,0.58854 3.71294,1.3664 2.59097,1.07683 3.45403,1.2974 3.61697,0.92443 0.11771,-0.26941 0.20959,-0.56771 0.20425,-0.66285 -0.005,-0.095 0.227,-0.56638 0.51643,-1.0472 l 0.52621,-0.87422 3.65884,1.49541 c 2.0123,0.82245 5.74876,2.36881 8.30316,3.43631 2.55434,1.06753 4.8831,1.90946 5.17491,1.87098 0.29198,-0.038 1.90667,0.19572 3.58835,0.5205 1.68178,0.32479 3.69669,0.6605 4.47775,0.74602 0.781,0.0856 2.51496,0.63554 3.85325,1.22211 5.77005,2.52911 5.78395,2.53222 8.37776,1.86059 2.27243,-0.58841 2.3421,-0.63662 2.06119,-1.42532 -0.15989,-0.44899 -0.1264,-0.89789 0.0743,-0.99758 0.2009,-0.0995 2.37311,-1.16139 4.82729,-2.35925 2.45425,-1.19789 4.4418,-2.31031 4.41683,-2.47201 -0.11132,-0.71749 -2.05231,-3.42881 -2.41507,-3.37278 -0.22141,0.0342 -2.33316,1.0672 -4.69301,2.29551 -2.35977,1.22829 -4.4224,2.25368 -4.58363,2.27864 -0.1613,0.025 -2.10796,-0.71877 -4.32592,-1.65264 -3.7263,-1.56902 -5.50783,-2.67465 -6.07774,-3.77211 -0.14084,-0.2711 0.98298,-1.58895 2.96835,-3.4809 l 3.19492,-3.04458 1.82834,0.24256 c 1.00557,0.13334 1.93376,0.15247 2.06255,0.0425 0.1287,-0.11014 1.05991,0.14775 2.06915,0.5721 1.00926,0.4247 2.00575,0.74578 2.21455,0.71352 0.32602,-0.0502 1.15982,-1.90159 1.08236,-2.40296 -0.0147,-0.0948 -1.23766,-0.64129 -2.71784,-1.21449 -1.48015,-0.57319 -3.12774,-1.32634 -3.66129,-1.67368 -0.70454,-0.45868 -13.02059,-5.68994 -15.74397,-6.68733 -0.49692,-0.18199 -1.28558,2.56011 -1.02038,3.54779 0.22607,0.84194 0.70866,1.19386 2.94762,2.14943 1.47255,0.62846 2.83757,1.11787 3.03351,1.08761 0.62885,-0.0969 3.27723,1.05032 3.34142,1.44776 0.0326,0.21139 0.31973,0.53818 0.63459,0.72675 0.76105,0.45562 -2.33162,-0.54677 -1.91797,3.03239 l -2.25686,2.13702 -1.46584,-0.74759 c -0.80611,-0.41121 -5.33501,-2.15824 -10.06419,-3.88232 -4.72912,-1.7241 -8.62725,-3.31056 -8.66256,-3.52549 -0.10964,-0.66617 -5.04324,-2.581 -5.45442,-2.11676 -0.19769,0.22325 -0.4917,0.35681 -0.65332,0.29681 -0.16168,-0.06 -2.8482,-1.16915 -5.97003,-2.46472 -5.14625,-2.13569 -5.6523,-2.42335 -5.42096,-3.08133 0.14035,-0.39916 0.1989,-0.75385 0.12999,-0.78821 -0.0688,-0.0344 -1.28502,-0.55696 -2.70262,-1.16129 -2.23355,-0.95221 -2.60711,-1.01927 -2.79971,-0.50276 -0.12221,0.32787 -0.35539,0.61663 -0.51803,0.64177 -0.30172,0.0465 -3.11645,-1.05201 -9.11127,-3.55611 -6.90308,-2.88351 -21.0512,-8.73181 -25.8422,-10.68218 -4.32582,-1.76102 -5.29432,-2.31268 -7.57331,-4.31383 -1.43723,-1.262 -2.98603,-2.39947 -3.44181,-2.52769 -0.45579,-0.1282 -4.14383,-1.62236 -8.19567,-3.32031 -4.72093,-1.97835 -7.70384,-3.03513 -8.30478,-2.94228 -3.68591,0.56942 -8.62246,12.89808 -6.36619,15.89905 0.26595,0.35378 4.21814,2.17852 8.78262,4.05507 8.29005,3.40814 8.30264,3.41187 11.61889,3.44021 3.12731,0.0267 3.62179,0.14887 8.52676,2.10625 2.86382,1.14284 7.12954,2.83219 9.47935,3.75412 2.34982,0.92193 5.77802,2.27279 7.61817,3.00193 1.84018,0.72913 4.93327,1.94407 6.8735,2.69984 1.94026,0.75576 3.95213,1.5797 4.47082,1.83098 0.5187,0.25127 1.10577,0.49338 1.30461,0.53802 1.56571,0.35148 5.39527,2.08362 5.32734,2.40961 -0.38041,1.8254 -0.36843,1.84145 2.11114,2.82036 1.32894,0.52468 2.42929,1.05487 2.44523,1.17822 l -2.4592,6.05569 c -0.258,3.24524 -0.50638,2.73447 -1.71443,5.68807 -0.77699,1.89968 -1.78028,4.42334 -2.22953,5.60811 -0.44923,1.18478 -1.18975,2.81703 -1.64554,3.62724 -0.4558,0.81022 -2.02539,3.80541 -3.48799,6.65598 -3.77517,7.35772 -6.27777,12.16734 -7.37149,14.16683 -0.51981,0.95031 -1.59993,2.97178 -2.40025,4.49215 -0.80032,1.52038 -1.87912,3.54184 -2.39732,4.49213 -2.39729,4.39633 -19.7949,36.74585 -22.3127,41.48878 m 5.54529,1.22514 c 0.61573,-1.21073 15.47416,-28.09005 23.21919,-42.39151 5.33283,-9.84721 6.69189,-12.36679 9.02945,-16.73981 2.02187,-3.78243 2.59266,-4.42687 3.58658,-4.04944 0.4942,0.18769 0.56585,0.49428 0.39527,1.69181 -0.1146,0.80443 -0.65259,5.49954 -1.19554,10.43357 -0.54295,4.93404 -3.29903,22.58282 -3.82045,26.75189 -1.75609,14.04114 -2.20871,22.07952 -3.69113,32.9513"
           style="fill:#ffffff;fill-opacity:1;stroke:none"
           id="path3831" />
        <path
           sodipodi:nodetypes="cscsscccscscccsccscssscsscscsccsscscsscssscsssssssscsccssscsccssccccsscsssssccccascsc"
           inkscape:connector-curvature="0"
           d="m 199.92076,818.60331 c 0,0 2.84993,-4.80744 5.92556,-10.66451 3.07562,-5.85706 12.01447,-24.21344 12.20322,-24.63605 0.0283,-0.0633 0.85331,0.39346 1.83341,1.01502 0.98009,0.62156 2.79405,1.43327 4.03102,1.8038 1.64523,0.49282 2.30146,0.88712 2.44434,1.46864 0.24193,0.98477 0.3089,24.04393 0.0757,24.21404 m 7.15577,0.77064 c -0.27635,3.2e-4 -0.0883,-0.33399 -0.25115,-4.03384 -0.1901,-4.31988 -0.36268,-18.92367 -0.26154,-22.13229 0.007,-0.2464 0.60747,-0.64381 1.33269,-0.88315 0.72521,-0.23934 1.79471,-1.15829 2.67384,-1.35489 l 1.35527,-0.91971 0.5504,0.84762 c 0.30273,0.46619 3.68004,6.46759 7.62763,13.26593 l 7.20045,12.40022 M 156.19701,707.65411 c -0.0232,-0.13879 0.54034,-5.24521 1.25231,-11.34761 0.71199,-6.10238 1.3504,-11.85847 1.41866,-12.7913 0.1026,-1.4024 0.35888,-1.86992 1.47999,-2.7003 0.74573,-0.55234 1.51343,-0.88574 1.70598,-0.74088 0.19255,0.14486 2.60354,3.10768 5.35777,6.58403 4.70526,5.93895 4.97041,6.3575 4.39091,6.93075 -0.33923,0.33556 -2.4228,2.21964 -4.63019,4.18688 -2.20738,1.96722 -5.49139,5.03821 -7.29779,6.82441 -3.30899,3.27199 -3.60066,3.51421 -3.67764,3.05402 z m 13.1568,-23.11476 -5.06542,-6.37887 1.27125,-1.52313 c 0.97029,-1.16256 1.5445,-1.53432 2.42556,-1.57041 1.63715,-0.067 23.86845,2.57046 23.91305,2.83703 0.0203,0.12128 -1.79098,1.53898 -4.02505,3.15045 -2.23405,1.61146 -6.00847,4.46217 -8.38759,6.3349 -2.37913,1.87274 -4.49234,3.43287 -4.69603,3.46693 -0.20369,0.034 -2.64978,-2.80852 -5.43577,-6.3169 z m 92.29525,125.63931 c -0.0668,-0.20055 -4.9785,-9.2675 -8.04055,-14.62649 -3.06203,-5.35898 -5.89916,-9.61187 -7.58141,-12.60004 l -3.05866,-5.43303 0.65116,-2.92685 c 1.13943,-5.12152 -0.24077,-9.08285 -1.93651,-11.859 0,0 -1.37136,-1.62528 -1.60258,-2.62364 -0.48913,-2.11196 0.60506,-6.47538 0.60506,-6.47538 0.67586,-3.52229 1.48578,-7.84185 1.79984,-9.599 0.31407,-1.75715 1.42577,-7.60903 2.47046,-13.00419 1.04469,-5.39514 2.43897,-12.68899 3.09842,-16.20854 1.39738,-7.45806 2.4569,-13.02061 4.53514,-23.80973 0.82699,-4.29334 1.81018,-9.42638 2.18484,-11.40675 0.37468,-1.98037 0.9761,-4.87035 1.33653,-6.4222 1.32044,-5.68535 0.93465,-9.77778 -1.19261,-12.6498 -6.48811,-8.7598 -27.58979,-4.12771 -53.90092,11.83187 l -4.85009,2.94194 -13.16644,-1.5412 c -7.24156,-0.84764 -13.47747,-1.57659 -13.85759,-1.61986 -0.38017,-0.0428 -0.72588,-0.28631 -0.76833,-0.54011 -0.0424,-0.2538 -1.00102,-0.78065 -2.13013,-1.17077 -1.1291,-0.39012 -2.5858,-1.02128 -3.23708,-1.40257 -1.95913,-1.14698 -3.78533,-1.56687 -5.23936,-1.2047 l -1.37299,0.34199 -5.14847,-6.38802 c -2.83168,-3.51339 -5.27009,-6.46794 -5.41869,-6.56567 -0.39341,-0.25863 -2.11328,0.98366 -2.0313,1.46725 0.0382,0.22576 1.73627,2.48514 3.77334,5.02089 2.03707,2.53575 4.37691,5.48527 5.19967,6.55451 l 1.49591,1.94405 -0.6462,1.26937 c -0.57158,1.12274 -0.5689,1.76553 0.0232,5.5652 0.56227,3.60887 0.81048,4.44882 1.55181,5.25263 0.87027,0.94355 0.90467,1.0075 0.46481,4.36234 -0.64297,4.90393 -1.01936,8.71102 -2.26311,19.73948 l -0.59518,5.27725 -3.72893,4.34162 c -5.08701,5.92289 -13.70614,18.08512 -16.03333,22.62418 -4.98137,9.71593 -6.31525,17.36692 -3.8885,22.30397 0.96175,1.9566 3.62637,4.00338 6.21121,4.77101 1.19993,0.35636 3.67062,0.69026 5.49044,0.74201 6.58165,0.18715 30.7999,1.29989 35.33239,1.62339 1.72522,0.12311 4.0992,0.24544 5.27553,0.27178 2.07902,0.0466 5.46358,0.20076 23.11006,1.05296 l 2.82564,0.21174 c 0.20667,0.13444 2.44835,0.20281 3.40879,0.87663 0.95521,0.67016 1.52863,0.92987 1.97348,2.89123 0.34255,1.51036 0.5019,3.12765 0.54917,3.55562 0.0473,0.42797 -9.91813,20.97136 -13.42626,28.10803 -3.50814,7.13666 -7.47388,14.7817 -7.47388,14.7817"
           style="fill:#ffffff;fill-opacity:1;stroke:none"
           id="path2996" />
        <g
           style="font-style:normal;font-variant:normal;font-weight:normal;font-stretch:normal;line-height:0.01%;font-family:Arial;-inkscape-font-specification:Arial;text-align:center;letter-spacing:0px;word-spacing:0px;text-anchor:middle;fill:#ffffff;fill-opacity:1;stroke:none"
           id="flowRoot3766-1"
           transform="translate(-51.339433,508.92562)"
           aria-label="Sternwarte Bad Kreuznach e.V.">
          <path
             id="path1118"
             style="font-size:40px;line-height:1.25;fill:#ffffff"
             d="m 207.70996,386.41885 3.57422,-0.3125 q 0.25391,2.14844 1.17187,3.53516 0.9375,1.36718 2.89063,2.22656 1.95312,0.83984 4.39453,0.83984 2.16797,0 3.82813,-0.64453 1.66015,-0.64453 2.46093,-1.75781 0.82032,-1.13281 0.82032,-2.46094 0,-1.34766 -0.78125,-2.34375 -0.78125,-1.01562 -2.57813,-1.69922 -1.15234,-0.44922 -5.09766,-1.38672 -3.94531,-0.95703 -5.52734,-1.79687 -2.05078,-1.07422 -3.06641,-2.65625 -0.99609,-1.60156 -0.99609,-3.57422 0,-2.16797 1.23047,-4.04297 1.23047,-1.89453 3.59375,-2.87109 2.36328,-0.97657 5.25391,-0.97657 3.18359,0 5.60546,1.03516 2.44141,1.01563 3.75,3.00781 1.3086,1.99219 1.40625,4.51172 l -3.63281,0.27344 q -0.29297,-2.71484 -1.99219,-4.10156 -1.67968,-1.38672 -4.98046,-1.38672 -3.4375,0 -5.01954,1.26953 -1.5625,1.25 -1.5625,3.02734 0,1.54297 1.11329,2.53907 1.09375,0.99609 5.70312,2.05078 4.62891,1.03515 6.34766,1.8164 2.5,1.15235 3.6914,2.92969 1.19141,1.75781 1.19141,4.0625 0,2.28516 -1.30859,4.31641 -1.3086,2.01172 -3.76954,3.14453 -2.4414,1.11328 -5.50781,1.11328 -3.88672,0 -6.52344,-1.13281 -2.61718,-1.13282 -4.12109,-3.39844 -1.48437,-2.28516 -1.5625,-5.15625 z" />
          <path
             id="path1120"
             style="font-size:40px;line-height:1.25;fill:#ffffff"
             d="m 242.90527,392.47354 0.50782,3.10547 q -1.48438,0.3125 -2.65625,0.3125 -1.91407,0 -2.96875,-0.60547 -1.05469,-0.60547 -1.48438,-1.58203 -0.42969,-0.9961 -0.42969,-4.16016 v -11.93359 h -2.57812 v -2.73438 h 2.57812 v -5.13672 l 3.4961,-2.10937 v 7.24609 h 3.53515 v 2.73438 h -3.53515 v 12.1289 q 0,1.50391 0.17578,1.9336 0.19531,0.42968 0.60547,0.68359 0.42968,0.25391 1.21093,0.25391 0.58594,0 1.54297,-0.13672 z" />
          <path
             id="path1122"
             style="font-size:40px;line-height:1.25;fill:#ffffff"
             d="m 260.54199,388.93838 3.63281,0.44922 q -0.85937,3.18359 -3.18359,4.94141 -2.32422,1.75781 -5.9375,1.75781 -4.55078,0 -7.22656,-2.79297 -2.65625,-2.8125 -2.65625,-7.87109 0,-5.23438 2.69531,-8.125 2.69531,-2.89063 6.99219,-2.89063 4.16015,0 6.79687,2.83203 2.63672,2.83203 2.63672,7.96875 0,0.3125 -0.0195,0.9375 h -15.46875 q 0.19531,3.41797 1.93359,5.23438 1.73829,1.8164 4.33594,1.8164 1.9336,0 3.30078,-1.01562 1.36719,-1.01563 2.16797,-3.24219 z m -11.54297,-5.68359 h 11.58203 q -0.23437,-2.61719 -1.32812,-3.92578 -1.67969,-2.03125 -4.35547,-2.03125 -2.42187,0 -4.08203,1.62109 -1.64063,1.62109 -1.81641,4.33594 z" />
          <path
             id="path1124"
             style="font-size:40px;line-height:1.25;fill:#ffffff"
             d="m 268.5498,395.61807 v -20.74219 h 3.16407 v 3.14453 q 1.21093,-2.20703 2.22656,-2.91015 1.03516,-0.70313 2.26562,-0.70313 1.77735,0 3.61329,1.13281 l -1.21094,3.26172 q -1.28906,-0.76172 -2.57813,-0.76172 -1.15234,0 -2.07031,0.70313 -0.91797,0.68359 -1.30859,1.91406 -0.58594,1.875 -0.58594,4.10156 v 10.85938 z" />
          <path
             id="path1126"
             style="font-size:40px;line-height:1.25;fill:#ffffff"
             d="m 281.90918,395.61807 v -20.74219 h 3.16406 v 2.94922 q 2.28516,-3.41797 6.60156,-3.41797 1.875,0 3.4375,0.68359 1.58204,0.66407 2.36329,1.75782 0.78125,1.09375 1.09375,2.59765 0.19531,0.97657 0.19531,3.41797 v 12.75391 h -3.51563 v -12.61719 q 0,-2.14844 -0.41015,-3.20312 -0.41016,-1.07422 -1.46485,-1.69922 -1.03515,-0.64453 -2.4414,-0.64453 -2.2461,0 -3.88672,1.42578 -1.6211,1.42578 -1.6211,5.41015 v 11.32813 z" />
          <path
             id="path1128"
             style="font-size:40px;line-height:1.25;fill:#ffffff"
             d="m 307.9834,395.61807 -6.34766,-20.74219 h 3.63281 l 3.30079,11.97266 1.23046,4.45312 q 0.0781,-0.33203 1.07422,-4.27734 l 3.30078,-12.14844 h 3.61329 l 3.10546,12.03125 1.03516,3.96484 1.19141,-4.0039 3.55468,-11.99219 h 3.41797 l -6.48437,20.74219 h -3.65235 l -3.30078,-12.42188 -0.80078,-3.53515 -4.19922,15.95703 z" />
          <path
             id="path1130"
             style="font-size:40px;line-height:1.25;fill:#ffffff"
             d="m 346.57715,393.05947 q -1.95313,1.66016 -3.76953,2.34375 -1.79688,0.6836 -3.86719,0.6836 -3.41797,0 -5.25391,-1.66016 -1.83593,-1.67969 -1.83593,-4.27734 0,-1.52344 0.68359,-2.77344 0.70312,-1.26953 1.81641,-2.03125 1.13281,-0.76172 2.53906,-1.15234 1.03515,-0.27344 3.125,-0.52735 4.25781,-0.50781 6.26953,-1.21093 0.0195,-0.72266 0.0195,-0.91797 0,-2.14844 -0.99609,-3.02735 -1.34766,-1.1914 -4.00391,-1.1914 -2.48047,0 -3.67187,0.8789 -1.17188,0.85938 -1.73829,3.06641 l -3.4375,-0.46875 q 0.46875,-2.20703 1.54297,-3.55469 1.07422,-1.36719 3.10547,-2.08984 2.03125,-0.74219 4.70703,-0.74219 2.65625,0 4.31641,0.625 1.66016,0.625 2.44141,1.58203 0.78125,0.9375 1.09375,2.38281 0.17578,0.89844 0.17578,3.24219 v 4.6875 q 0,4.90235 0.21484,6.21094 0.23438,1.28906 0.89844,2.48047 h -3.67188 q -0.54687,-1.09375 -0.70312,-2.5586 z m -0.29297,-7.85156 q -1.91406,0.78125 -5.74219,1.32813 -2.16797,0.3125 -3.0664,0.70312 -0.89844,0.39063 -1.38672,1.15235 -0.48828,0.74218 -0.48828,1.66015 0,1.40625 1.05468,2.34375 1.07422,0.9375 3.125,0.9375 2.03125,0 3.61328,-0.8789 1.58204,-0.89844 2.32422,-2.44141 0.56641,-1.19141 0.56641,-3.51563 z" />
          <path
             id="path1132"
             style="font-size:40px;line-height:1.25;fill:#ffffff"
             d="m 355.24902,395.61807 v -20.74219 h 3.16407 v 3.14453 q 1.21093,-2.20703 2.22656,-2.91015 1.03515,-0.70313 2.26562,-0.70313 1.77735,0 3.61328,1.13281 l -1.21093,3.26172 q -1.28907,-0.76172 -2.57813,-0.76172 -1.15234,0 -2.07031,0.70313 -0.91797,0.68359 -1.30859,1.91406 -0.58594,1.875 -0.58594,4.10156 v 10.85938 z" />
          <path
             id="path1134"
             style="font-size:40px;line-height:1.25;fill:#ffffff"
             d="m 376.28418,392.47354 0.50781,3.10547 q -1.48437,0.3125 -2.65625,0.3125 -1.91406,0 -2.96875,-0.60547 -1.05469,-0.60547 -1.48437,-1.58203 -0.42969,-0.9961 -0.42969,-4.16016 v -11.93359 h -2.57813 v -2.73438 h 2.57813 v -5.13672 l 3.49609,-2.10937 v 7.24609 h 3.53516 v 2.73438 h -3.53516 v 12.1289 q 0,1.50391 0.17578,1.9336 0.19532,0.42968 0.60547,0.68359 0.42969,0.25391 1.21094,0.25391 0.58594,0 1.54297,-0.13672 z" />
          <path
             id="path1136"
             style="font-size:40px;line-height:1.25;fill:#ffffff"
             d="m 393.9209,388.93838 3.63281,0.44922 q -0.85937,3.18359 -3.18359,4.94141 -2.32422,1.75781 -5.9375,1.75781 -4.55078,0 -7.22657,-2.79297 -2.65625,-2.8125 -2.65625,-7.87109 0,-5.23438 2.69532,-8.125 2.69531,-2.89063 6.99218,-2.89063 4.16016,0 6.79688,2.83203 2.63672,2.83203 2.63672,7.96875 0,0.3125 -0.0195,0.9375 h -15.46875 q 0.19531,3.41797 1.93359,5.23438 1.73828,1.8164 4.33594,1.8164 1.93359,0 3.30078,-1.01562 1.36719,-1.01563 2.16797,-3.24219 z m -11.54297,-5.68359 h 11.58203 q -0.23437,-2.61719 -1.32812,-3.92578 -1.67969,-2.03125 -4.35547,-2.03125 -2.42188,0 -4.08203,1.62109 -1.64063,1.62109 -1.81641,4.33594 z" />
          <path
             id="path1138"
             style="font-size:40px;line-height:1.25;fill:#ffffff"
             d="m 129.49707,445.61807 v -28.63281 h 10.74219 q 3.28125,0 5.2539,0.8789 1.99219,0.85938 3.10547,2.67578 1.13282,1.79688 1.13282,3.76953 0,1.83594 -0.9961,3.45704 -0.99609,1.62109 -3.00781,2.61718 2.59766,0.76172 3.98437,2.59766 1.40625,1.83594 1.40625,4.33594 0,2.01172 -0.85937,3.75 -0.83984,1.71875 -2.08984,2.65625 -1.25,0.9375 -3.14454,1.42578 -1.875,0.46875 -4.60937,0.46875 z m 3.78906,-16.60156 h 6.19141 q 2.51953,0 3.61328,-0.33204 1.44531,-0.42968 2.16797,-1.42578 0.74219,-0.99609 0.74219,-2.5 0,-1.42578 -0.6836,-2.5 -0.68359,-1.09375 -1.95312,-1.48437 -1.26953,-0.41016 -4.35547,-0.41016 h -5.72266 z m 0,13.22265 h 7.12891 q 1.83594,0 2.57812,-0.13672 1.3086,-0.23437 2.1875,-0.78125 0.87891,-0.54687 1.44532,-1.58203 0.5664,-1.05469 0.5664,-2.42187 0,-1.60157 -0.82031,-2.77344 -0.82031,-1.19141 -2.28516,-1.66016 -1.44531,-0.48828 -4.17968,-0.48828 h -6.6211 z" />
          <path
             id="path1140"
             style="font-size:40px;line-height:1.25;fill:#ffffff"
             d="m 169.41895,443.05947 q -1.95313,1.66016 -3.76954,2.34375 -1.79687,0.6836 -3.86718,0.6836 -3.41797,0 -5.25391,-1.66016 -1.83594,-1.67969 -1.83594,-4.27734 0,-1.52344 0.6836,-2.77344 0.70312,-1.26953 1.8164,-2.03125 1.13282,-0.76172 2.53907,-1.15234 1.03515,-0.27344 3.125,-0.52735 4.25781,-0.50781 6.26953,-1.21093 0.0195,-0.72266 0.0195,-0.91797 0,-2.14844 -0.9961,-3.02735 -1.34765,-1.1914 -4.0039,-1.1914 -2.48047,0 -3.67188,0.8789 -1.17187,0.85938 -1.73828,3.06641 l -3.4375,-0.46875 q 0.46875,-2.20703 1.54297,-3.55469 1.07422,-1.36719 3.10547,-2.08984 2.03125,-0.74219 4.70703,-0.74219 2.65625,0 4.31641,0.625 1.66015,0.625 2.4414,1.58203 0.78125,0.9375 1.09375,2.38281 0.17578,0.89844 0.17578,3.24219 v 4.6875 q 0,4.90235 0.21485,6.21094 0.23437,1.28906 0.89844,2.48047 h -3.67188 q -0.54687,-1.09375 -0.70312,-2.5586 z m -0.29297,-7.85156 q -1.91407,0.78125 -5.74219,1.32813 -2.16797,0.3125 -3.06641,0.70312 -0.89843,0.39063 -1.38672,1.15235 -0.48828,0.74218 -0.48828,1.66015 0,1.40625 1.05469,2.34375 1.07422,0.9375 3.125,0.9375 2.03125,0 3.61328,-0.8789 1.58203,-0.89844 2.32422,-2.44141 0.56641,-1.19141 0.56641,-3.51563 z" />
          <path
             id="path1142"
             style="font-size:40px;line-height:1.25;fill:#ffffff"
             d="m 191.58691,445.61807 v -2.61719 q -1.97265,3.08594 -5.80078,3.08594 -2.48047,0 -4.57031,-1.36719 -2.07031,-1.36719 -3.22266,-3.80859 -1.13281,-2.46094 -1.13281,-5.64453 0,-3.10547 1.03516,-5.625 1.03515,-2.53907 3.10547,-3.88672 2.07031,-1.34766 4.6289,-1.34766 1.875,0 3.33985,0.80078 1.46484,0.78125 2.38281,2.05078 v -10.27343 h 3.49609 v 28.63281 z m -11.11328,-10.35156 q 0,3.98437 1.67969,5.95703 1.67969,1.97265 3.96484,1.97265 2.30469,0 3.90625,-1.875 1.6211,-1.89453 1.6211,-5.76172 0,-4.25781 -1.64063,-6.25 -1.64062,-1.99218 -4.04297,-1.99218 -2.34375,0 -3.92578,1.91406 -1.5625,1.91406 -1.5625,6.03516 z" />
          <path
             id="path1144"
             style="font-size:40px;line-height:1.25;fill:#ffffff"
             d="m 211.78223,445.61807 v -28.63281 h 3.78906 v 14.19921 l 14.21875,-14.19921 h 5.13672 l -12.01172,11.60156 12.53906,17.03125 h -5 l -10.19531,-14.49219 -4.6875,4.57031 v 9.92188 z" />
          <path
             id="path1146"
             style="font-size:40px;line-height:1.25;fill:#ffffff"
             d="m 238.12988,445.61807 v -20.74219 h 3.16407 v 3.14453 q 1.21093,-2.20703 2.22656,-2.91015 1.03515,-0.70313 2.26562,-0.70313 1.77735,0 3.61328,1.13281 l -1.21093,3.26172 q -1.28907,-0.76172 -2.57813,-0.76172 -1.15234,0 -2.07031,0.70313 -0.91797,0.68359 -1.30859,1.91406 -0.58594,1.875 -0.58594,4.10156 v 10.85938 z" />
          <path
             id="path1148"
             style="font-size:40px;line-height:1.25;fill:#ffffff"
             d="m 265.68848,438.93838 3.63281,0.44922 q -0.85938,3.18359 -3.18359,4.94141 -2.32422,1.75781 -5.9375,1.75781 -4.55079,0 -7.22657,-2.79297 -2.65625,-2.8125 -2.65625,-7.87109 0,-5.23438 2.69532,-8.125 2.69531,-2.89063 6.99218,-2.89063 4.16016,0 6.79688,2.83203 2.63672,2.83203 2.63672,7.96875 0,0.3125 -0.0195,0.9375 H 253.9502 q 0.19531,3.41797 1.93359,5.23438 1.73828,1.8164 4.33594,1.8164 1.93359,0 3.30078,-1.01562 1.36719,-1.01563 2.16797,-3.24219 z m -11.54297,-5.68359 h 11.58203 q -0.23438,-2.61719 -1.32813,-3.92578 -1.67968,-2.03125 -4.35546,-2.03125 -2.42188,0 -4.08204,1.62109 -1.64062,1.62109 -1.8164,4.33594 z" />
          <path
             id="path1150"
             style="font-size:40px;line-height:1.25;fill:#ffffff"
             d="m 287.3291,445.61807 v -3.04688 q -2.42187,3.51563 -6.58203,3.51563 -1.83594,0 -3.4375,-0.70313 -1.58203,-0.70312 -2.36328,-1.75781 -0.76172,-1.07422 -1.07422,-2.61719 -0.21484,-1.03515 -0.21484,-3.28125 v -12.85156 h 3.51562 v 11.50391 q 0,2.7539 0.21485,3.71093 0.33203,1.38672 1.40625,2.1875 1.07421,0.78125 2.65625,0.78125 1.58203,0 2.96875,-0.80078 1.38671,-0.82031 1.95312,-2.20703 0.58594,-1.40625 0.58594,-4.0625 v -11.11328 h 3.51562 v 20.74219 z" />
          <path
             id="path1152"
             style="font-size:40px;line-height:1.25;fill:#ffffff"
             d="m 294.12598,445.61807 v -2.85156 l 13.20312,-15.15625 q -2.24609,0.11718 -3.96484,0.11718 h -8.45703 v -2.85156 h 16.95312 v 2.32422 l -11.23047,13.16406 -2.16797,2.40235 q 2.36329,-0.17579 4.4336,-0.17579 h 9.58984 v 3.02735 z" />
          <path
             id="path1154"
             style="font-size:40px;line-height:1.25;fill:#ffffff"
             d="m 315.98145,445.61807 v -20.74219 h 3.16406 v 2.94922 q 2.28515,-3.41797 6.60156,-3.41797 1.875,0 3.4375,0.68359 1.58203,0.66407 2.36328,1.75782 0.78125,1.09375 1.09375,2.59765 0.19531,0.97657 0.19531,3.41797 v 12.75391 h -3.51562 v -12.61719 q 0,-2.14844 -0.41016,-3.20312 -0.41015,-1.07422 -1.46484,-1.69922 -1.03516,-0.64453 -2.44141,-0.64453 -2.24609,0 -3.88672,1.42578 -1.62109,1.42578 -1.62109,5.41015 v 11.32813 z" />
          <path
             id="path1156"
             style="font-size:40px;line-height:1.25;fill:#ffffff"
             d="m 351.7627,443.05947 q -1.95313,1.66016 -3.76954,2.34375 -1.79687,0.6836 -3.86718,0.6836 -3.41797,0 -5.25391,-1.66016 -1.83594,-1.67969 -1.83594,-4.27734 0,-1.52344 0.6836,-2.77344 0.70312,-1.26953 1.8164,-2.03125 1.13282,-0.76172 2.53907,-1.15234 1.03515,-0.27344 3.125,-0.52735 4.25781,-0.50781 6.26953,-1.21093 0.0195,-0.72266 0.0195,-0.91797 0,-2.14844 -0.9961,-3.02735 -1.34765,-1.1914 -4.0039,-1.1914 -2.48047,0 -3.67188,0.8789 -1.17187,0.85938 -1.73828,3.06641 l -3.4375,-0.46875 q 0.46875,-2.20703 1.54297,-3.55469 1.07422,-1.36719 3.10547,-2.08984 2.03125,-0.74219 4.70703,-0.74219 2.65625,0 4.31641,0.625 1.66015,0.625 2.4414,1.58203 0.78125,0.9375 1.09375,2.38281 0.17578,0.89844 0.17578,3.24219 v 4.6875 q 0,4.90235 0.21485,6.21094 0.23437,1.28906 0.89844,2.48047 h -3.67188 q -0.54687,-1.09375 -0.70312,-2.5586 z m -0.29297,-7.85156 q -1.91407,0.78125 -5.74219,1.32813 -2.16797,0.3125 -3.06641,0.70312 -0.89843,0.39063 -1.38672,1.15235 -0.48828,0.74218 -0.48828,1.66015 0,1.40625 1.05469,2.34375 1.07422,0.9375 3.125,0.9375 2.03125,0 3.61328,-0.8789 1.58203,-0.89844 2.32422,-2.44141 0.56641,-1.19141 0.56641,-3.51563 z" />
          <path
             id="path1158"
             style="font-size:40px;line-height:1.25;fill:#ffffff"
             d="m 374.00879,438.02041 3.45703,0.44922 q -0.56641,3.57422 -2.91016,5.60547 -2.32421,2.01172 -5.72265,2.01172 -4.25781,0 -6.85547,-2.77344 -2.57813,-2.79297 -2.57813,-7.98828 0,-3.35938 1.11329,-5.87891 1.11328,-2.51953 3.3789,-3.76953 2.28516,-1.26953 4.96094,-1.26953 3.37891,0 5.52734,1.71875 2.14844,1.69922 2.75391,4.84375 l -3.41797,0.52734 q -0.48828,-2.08984 -1.73828,-3.14453 -1.23047,-1.05468 -2.98828,-1.05468 -2.65625,0 -4.31641,1.91406 -1.66015,1.89453 -1.66015,6.01562 0,4.17969 1.60156,6.07422 1.60156,1.89453 4.17969,1.89453 2.07031,0 3.45703,-1.26953 1.38672,-1.26953 1.75781,-3.90625 z" />
          <path
             id="path1160"
             style="font-size:40px;line-height:1.25;fill:#ffffff"
             d="m 380.47363,445.61807 v -28.63281 h 3.51563 v 10.27343 q 2.46094,-2.85156 6.21094,-2.85156 2.30468,0 4.0039,0.91797 1.69922,0.89844 2.42188,2.5 0.74218,1.60156 0.74218,4.64844 v 13.14453 h -3.51562 v -13.14453 q 0,-2.63672 -1.15234,-3.82813 -1.13282,-1.21094 -3.22266,-1.21094 -1.5625,0 -2.94922,0.82032 -1.36719,0.80078 -1.95312,2.1875 -0.58594,1.38672 -0.58594,3.82812 v 11.34766 z" />
          <path
             id="path1162"
             style="font-size:40px;line-height:1.25;fill:#ffffff"
             d="m 428.03223,438.93838 3.63281,0.44922 q -0.85938,3.18359 -3.18359,4.94141 -2.32422,1.75781 -5.9375,1.75781 -4.55079,0 -7.22657,-2.79297 -2.65625,-2.8125 -2.65625,-7.87109 0,-5.23438 2.69532,-8.125 2.69531,-2.89063 6.99218,-2.89063 4.16016,0 6.79688,2.83203 2.63672,2.83203 2.63672,7.96875 0,0.3125 -0.0195,0.9375 h -15.46875 q 0.19531,3.41797 1.93359,5.23438 1.73828,1.8164 4.33594,1.8164 1.93359,0 3.30078,-1.01562 1.36719,-1.01563 2.16797,-3.24219 z m -11.54297,-5.68359 h 11.58203 q -0.23438,-2.61719 -1.32813,-3.92578 -1.67968,-2.03125 -4.35546,-2.03125 -2.42188,0 -4.08204,1.62109 -1.64062,1.62109 -1.8164,4.33594 z" />
          <path
             id="path1164"
             style="font-size:40px;line-height:1.25;fill:#ffffff"
             d="m 437.0752,445.61807 v -4.00391 h 4.0039 v 4.00391 z" />
          <path
             id="path1166"
             style="font-size:40px;line-height:1.25;fill:#ffffff"
             d="m 455.8252,445.61807 -11.09375,-28.63281 h 4.10156 l 7.4414,20.80078 q 0.89844,2.5 1.50391,4.6875 0.66406,-2.34375 1.54297,-4.6875 l 7.73437,-20.80078 h 3.86719 l -11.21094,28.63281 z" />
          <path
             id="path1168"
             style="font-size:40px;line-height:1.25;fill:#ffffff"
             d="m 471.19629,445.61807 v -4.00391 h 4.00391 v 4.00391 z" />
        </g>
      </g>
      <ellipse
         id="path3851"
         style="fill:#ffffff;fill-opacity:1;fill-rule:nonzero;stroke:none;stroke-width:0.0143175"
         cx="94.168129"
         cy="653.38605"
         rx="1.1570287"
         ry="1.1570303" />
      <path
         d="m 132.59278,652.94549 -36.136975,2.60888 -2.09967,36.17014 -2.608874,-36.13698 -36.170138,-2.09967 36.136979,-2.60888 2.099669,-36.17014 2.608875,36.13698 z"
         inkscape:randomized="0"
         inkscape:rounded="0"
         inkscape:flatsided="false"
         sodipodi:arg2="0.77835603"
         sodipodi:arg1="-0.0070421379"
         sodipodi:r2="3.3295259"
         sodipodi:r1="38.508785"
         sodipodi:cy="653.21667"
         sodipodi:cx="94.084953"
         sodipodi:sides="4"
         id="path3857"
         style="fill:#ffffff;fill-opacity:1;fill-rule:nonzero;stroke:none;stroke-width:0.14951"
         sodipodi:type="star" />
      <path
         d="m 113.13941,652.55954 -14.92259,4.37567 -3.708457,15.10224 -4.375675,-14.92259 -15.10224,-3.70846 14.922593,-4.37567 3.708456,-15.10224 4.375675,14.92259 z"
         inkscape:randomized="0"
         inkscape:rounded="0"
         inkscape:flatsided="false"
         sodipodi:arg2="0.7631796"
         sodipodi:arg1="-0.022218565"
         sodipodi:r2="5.7177553"
         sodipodi:r1="19.059187"
         sodipodi:cy="652.98297"
         sodipodi:cx="94.08493"
         sodipodi:sides="4"
         id="path3023"
         style="fill:#ffffff;fill-opacity:1;fill-rule:nonzero;stroke:none;stroke-width:0.148202"
         sodipodi:type="star" />
    </g>
  </g>
</svg>
