<?xml version="1.0" encoding="UTF-8" standalone="no"?>
<svg
   xmlns:dc="http://purl.org/dc/elements/1.1/"
   xmlns:cc="http://creativecommons.org/ns#"
   xmlns:rdf="http://www.w3.org/1999/02/22-rdf-syntax-ns#"
   xmlns:svg="http://www.w3.org/2000/svg"
   xmlns="http://www.w3.org/2000/svg"
   xmlns:sodipodi="http://sodipodi.sourceforge.net/DTD/sodipodi-0.dtd"
   xmlns:inkscape="http://www.inkscape.org/namespaces/inkscape"
   width="137.59122"
   height="48.799789"
   viewBox="0 0 137.59121 48.799791"
   version="1.1"
   id="svg298"
   sodipodi:docname="logo.svg"
   inkscape:version="1.0.2 (e86c870879, 2021-01-15)">
  <metadata
     id="metadata304">
    <rdf:RDF>
      <cc:Work
         rdf:about="">
        <dc:format>image/svg+xml</dc:format>
        <dc:type
           rdf:resource="http://purl.org/dc/dcmitype/StillImage" />
        <dc:title>logo</dc:title>
      </cc:Work>
    </rdf:RDF>
  </metadata>
  <defs
     id="defs302" />
  <sodipodi:namedview
     pagecolor="#ffffff"
     bordercolor="#666666"
     borderopacity="1"
     objecttolerance="10"
     gridtolerance="10"
     guidetolerance="10"
     inkscape:pageopacity="0"
     inkscape:pageshadow="2"
     inkscape:window-width="1920"
     inkscape:window-height="1016"
     id="namedview300"
     showgrid="false"
     fit-margin-top="0"
     fit-margin-left="0"
     fit-margin-right="0"
     fit-margin-bottom="0"
     inkscape:zoom="1.561475"
     inkscape:cx="254.38079"
     inkscape:cy="77.369547"
     inkscape:window-x="1920"
     inkscape:window-y="27"
     inkscape:window-maximized="1"
     inkscape:current-layer="svg298" />
  <title
     id="title176">logo</title>
  <path
     d="m 27.286257,12.82 a 1.171,1.171 0 0 0 -0.87,-1.409 1.193,1.193 0 0 0 -0.26,-0.031 h -6 a 1.179,1.179 0 0 0 -1.11,0.85 l -4.56,15.78 a 0.59,0.59 0 0 1 -0.56,0.43 0.58,0.58 0 0 1 -0.56,-0.44 L 8.9162573,12.28 a 1.149,1.149 0 0 0 -1.1,-0.9 h -6.616 A 1.17,1.17 0 0 0 2.573012e-4,12.519 v 0 A 1.18,1.18 0 0 0 0.0062573,12.665 c 0,0.43 8.81,27.47 8.88,27.63 a 1.16,1.16 0 0 0 1.1199997,0.71 h 7.62 a 1.172,1.172 0 0 0 1.1,-0.79 z"
     style="fill:#002b5c"
     id="path188" />
  <path
     d="M 55.936257,39.82 V 22.01 c 0,-4.1 -0.62,-6.23 -2,-8.2 -1.38,-1.97 -4.48,-3.47 -8.6,-3.47 a 10.508,10.508 0 0 0 -6.82,2.67 V 1.21 a 1.18,1.18 0 0 0 -1.159,-1.2 h -6.011 a 1.16,1.16 0 0 0 -1.11,1.2 v 38.61 a 1.17,1.17 0 0 0 1.14,1.19 h 5.95 a 1.179,1.179 0 0 0 1.19,-1.168 V 22.73 c 0,-3.06 1.88,-5.2 4.59,-5.2 2.38,0 4.56,1.9 4.56,5.2 v 17.09 a 1.141,1.141 0 0 0 1.089,1.189 h 6.045 a 1.19,1.19 0 0 0 1.136,-1.189 z"
     style="fill:#002b5c"
     id="path190" />
  <path
     d="m 83.616257,17.86 c 0,-2.08 -2.53,-7.47 -11.85,-7.47 -11.26,0 -12.09,6.67 -12.09,8.65 0,5.47 4,7.51 9,9 4.63,1.45 7.33,2.71 7.33,4.43 0,2.73 -2.65,3 -4.13,3 a 5.221,5.221 0 0 1 -5.15,-3.54 1.17,1.17 0 0 0 -1.18,-1 l -5.44,0.38 c -0.69,0.05 -1,0.89 -1,1.19 0.02,3.51 4.18,9.51 12.84,9.51 9.88,0 12.8,-6.07 12.8,-9.56 0,-6.41 -4.34,-8 -9.41,-9.57 -4,-1.2 -7.51,-2.22 -7.51,-4.1 0,-0.68 0,-2.56 3.89,-2.56 2.16,0 4.32,0.66 4.79,2.32 a 1.18,1.18 0 0 0 1.13,0.87 c 0.66,0 4.86,-0.34 4.86,-0.34 a 1.15,1.15 0 0 0 1.121,-1.178 z"
     style="fill:#002b5c"
     id="path192" />
  <path
     d="m 118.73626,38.4 a 4.4,4.4 0 0 0 -1.88,0.42 l -0.06,-0.42 a 9,9 0 1 0 -1.79,6.93 4.47,4.47 0 1 0 3.72,-6.93 z"
     style="fill:#ec1c24"
     id="path196" />
  <path
     d="m 127.00626,37.64 a 5.15,5.15 0 0 1 -3.84,5 c -0.42,0.11 -5.81,-1.53 -6.34,-3.82 a 5,5 0 0 1 -0.13,-1.17 5.1603309,5.1603309 0 0 1 10.31,-0.469 V 37.2 c 0.007,0.151 0.007,0.3 0,0.454 z"
     style="fill:#53b6e7"
     id="path198" />
  <path
     d="m 135.36626,33.63 a 6.19,6.19 0 1 1 -6.19,-6.19 6.19,6.19 0 0 1 6.19,6.19 z"
     style="fill:#2074ad"
     id="path200" />
  <path
     d="m 123.20026,42.63 a 4.47,4.47 0 0 0 -4.46,-4.23 4.517,4.517 0 0 0 -1.88,0.41 5.16,5.16 0 0 0 6.2,3.857 v 0 z"
     style="fill:#870327"
     id="path202" />
  <path
     d="m 131.58626,26.37 a 2.41,2.41 0 1 1 -2.46,-2.359 h 0.05 a 2.41,2.41 0 0 1 2.41,2.359 z"
     style="fill:#53b6e7"
     id="path204" />
  <path
     d="m 127.26626,0.25 a 10.254,10.254 0 0 0 -6.82,2.59 2.328,2.328 0 0 0 -1.62,-0.64 2.4,2.4 0 0 0 -1.13,4.52 10.32,10.32 0 1 0 9.57,-6.47 z"
     style="fill:#fcb823"
     id="path206" />
  <path
     d="m 100.67626,34.66 a 3.79,3.79 0 1 0 -5.331003,0.551 v 0 l 0.011,0.009 a 3.79,3.79 0 0 0 5.320003,-0.56"
     style="fill:#f26f21"
     id="path208" />
  <path
     d="m 123.07626,32.63 a 6.709,6.709 0 0 0 -0.09,1 6.191,6.191 0 0 0 3.77,5.7 5.25,5.25 0 0 0 0.28,-1.69 5.16,5.16 0 0 0 -3.96,-5.01 z"
     style="fill:#224f80"
     id="path210" />
  <path
     d="m 129.17626,27.44 a 6.414,6.414 0 0 0 -2,0.32 2.39,2.39 0 0 0 3.92,0 6.324,6.324 0 0 0 -1.92,-0.32 z"
     style="fill:#224f80"
     id="path212" />
  <path
     d="m 117.70026,6.72 a 2.39,2.39 0 0 0 2.75,-3.88 10.353,10.353 0 0 0 -2.75,3.88 z"
     style="fill:#e18e19"
     id="path214" />
  <path
     d="m 105.35626,0.01 a 3.763,3.763 0 0 0 -3.09,1.6 7.56,7.56 0 1 0 3,6.06 v -0.1 0 a 3.79,3.79 0 0 0 0,-7.57 z"
     style="fill:#002b5c"
     id="path216" />
  <path
     d="m 92.006257,19.51 a 2.41,2.41 0 1 0 1.127,3.217 V 22.72 a 2.409,2.409 0 0 0 -1.127,-3.21 z"
     style="fill:#002b5c"
     id="path218" />
  <path
     d="m 112.50626,5.72 a 1.17,1.17 0 1 0 1.17,1.17 v 0 a 1.17,1.17 0 0 0 -1.17,-1.17 z"
     style="fill:#002b5c"
     id="path220" />
  <path
     d="m 128.58626,42.07 a 1.17,1.17 0 1 0 1.17,1.17 v 0 a 1.17,1.17 0 0 0 -1.17,-1.17 z"
     style="fill:#002b5c"
     id="path222" />
</svg>
